<!DOCTYPE svg PUBLIC "-//W3C//DTD SVG 20010904//EN" "http://www.w3.org/TR/2001/REC-SVG-20010904/DTD/svg10.dtd"><svg version="1.0" xmlns="http://www.w3.org/2000/svg" viewBox="0 0 760.000000 658.000000" preserveAspectRatio="xMidYMid meet"><g transform="translate(0.000000,658.000000) scale(0.100000,-0.100000)"fill="#0A0A0A" stroke="none"><path d="M3924 5622 l-11 -7 -23 -45 -23 -45 -7 -5 -7 -5 -23 -64 -22 -63 -19-44 -20 -44 -7 0 -7 0 -18 -40 -17 -40 0 -13 0 -12 -63 -125 -64 -125 -13 -40-13 -40 -12 -15 -13 -15 -31 -68 -31 -68 -6 -27 -7 -27 -18 -25 -17 -26 -30-64 -29 -65 -6 -26 -7 -26 -45 -75 -45 -76 -19 -55 -19 -55 -32 -58 -33 -59-7 -10 -7 -10 -7 -30 -8 -30 -29 -63 -29 -62 -14 -6 -14 -5 -68 31 -68 31 -1613 -15 14 -63 25 -62 26 -44 29 -43 30 -39 12 -39 13 -45 25 -45 26 -40 26-40 26 -60 23 -60 24 -64 39 -65 38 -11 0 -12 0 -59 31 -59 31 -16 14 -15 14-57 19 -56 20 -28 19 -28 19 -40 25 -40 26 -25 7 -25 8 -70 34 -70 35 -15 13-15 12 -38 13 -38 12 -79 44 -79 44 -38 14 -38 13 -39 27 -39 26 -61 30 -6130 -32 6 -33 7 0 -924 0 -924 35 -22 35 -23 9 0 8 0 26 -21 26 -20 48 -16 48-16 15 -12 15 -12 60 -31 60 -31 45 -20 45 -21 30 -18 30 -18 45 -26 45 -2641 -11 42 -11 12 -15 12 -15 10 0 10 0 29 -20 28 -21 57 -19 58 -20 15 -14 16-15 80 -36 80 -37 40 -21 40 -20 41 -27 41 -28 37 -12 37 -12 6 -13 5 -14 -37-67 -38 -68 -22 -66 -23 -67 -24 -39 -25 -39 -22 -60 -23 -60 -15 -30 -16 -30-22 -41 -22 -42 -19 -53 -18 -54 -17 -25 -16 -25 -32 -64 -32 -64 -14 -42 -15-42 -40 -73 -40 -73 0 -13 0 -14 280 0 280 0 20 37 21 38 24 40 23 40 16 4616 45 50 99 50 99 0 11 0 11 43 85 43 84 11 20 11 20 28 70 28 70 21 31 20 3211 18 11 18 53 -27 53 -27 65 -26 65 -26 34 -24 34 -23 47 -17 47 -17 40 -2640 -26 25 -12 25 -12 67 -30 67 -29 33 -24 33 -25 61 -26 62 -27 9 0 10 0 43-31 43 -31 70 -29 71 -29 32 -25 33 -25 73 -35 72 -35 17 0 17 0 6 36 7 35 -2250 -2 251 -14 14 -14 14 -12 0 -12 0 -25 14 -25 13 -55 31 -55 31 -35 17 -3517 -65 30 -65 30 -20 17 -20 17 -42 11 -42 12 -65 40 -66 40 -42 17 -43 17-82 48 -82 49 -33 11 -33 11 -85 47 -85 47 -29 7 -30 7 -25 18 -26 18 -60 30-60 31 -35 16 -35 16 -42 24 -43 24 -32 20 -33 20 -40 12 -40 13 -15 12 -1513 -69 36 -69 36 -17 0 -17 0 -24 18 -24 19 -55 30 -55 30 -35 13 -35 13 -1513 -15 12 -65 35 -65 34 -40 13 -40 13 -15 12 -15 12 -55 31 -55 30 -40 12-40 12 -33 27 -34 27 0 339 0 339 10 4 10 3 43 -29 44 -28 72 -28 73 -28 6-10 6 -10 95 -44 94 -44 6 0 6 0 16 -14 16 -14 39 -22 40 -22 50 -20 51 -1945 -29 45 -28 63 -26 62 -26 53 -33 52 -33 55 -23 55 -22 40 -24 40 -25 55-28 55 -29 25 -8 25 -8 40 -27 40 -26 35 -14 35 -13 60 -30 60 -29 15 -13 15-13 75 -31 75 -31 60 -40 60 -39 12 -1 12 0 73 -38 73 -38 30 -16 30 -16 75-36 75 -37 25 -14 25 -14 95 -47 95 -48 100 -50 100 -51 35 -23 35 -22 13 013 0 32 -15 32 -15 50 -30 50 -30 35 -15 35 -15 60 -32 60 -31 26 -18 25 -1853 -20 53 -20 66 -39 67 -39 25 -8 25 -7 85 -48 85 -47 25 -6 25 -6 90 -54 90-54 40 -14 40 -13 11 -8 11 -8 49 -27 49 -26 37 -19 37 -18 11 0 10 0 9 -22 9-23 32 -83 32 -82 17 -23 17 -22 14 -45 14 -45 19 -35 20 -35 32 -65 33 -6521 -54 20 -54 27 -38 27 -39 16 -2 16 -1 257 -1 258 -1 0 13 0 12 -34 68 -3467 -13 45 -13 45 -17 25 -17 25 -30 65 -30 65 -7 25 -8 25 -17 25 -18 25 -3280 -32 80 -7 15 -8 15 -45 85 -45 85 -7 32 -7 32 -44 81 -44 82 -12 36 -11 37-44 84 -44 83 0 11 0 10 -70 143 -70 142 0 14 0 13 -21 40 -22 40 -8 5 -8 6-35 89 -35 90 -45 90 -46 90 0 12 0 13 -50 92 -49 93 -16 45 -16 44 -26 53-26 53 -8 5 -7 5 -17 53 -17 52 -29 60 -30 60 -9 15 -10 15 -36 95 -36 95 -1926 -19 27 -31 77 -30 77 -34 61 -33 62 -16 47 -15 47 -39 73 -38 73 -14 45-14 45 -51 95 -51 95 -12 40 -11 40 -42 80 -41 80 -24 65 -25 65 -23 35 -2335 -26 60 -26 60 -7 25 -6 25 -10 13 -10 12 -317 0 -316 0 -11 -8z m352 -608l6 -34 9 -6 9 -5 21 -47 22 -47 17 -25 17 -25 17 -57 16 -57 10 -6 10 -6 0-15 0 -14 25 -38 24 -37 21 -60 20 -60 39 -80 39 -80 23 -55 24 -55 27 -46 28-46 25 -69 26 -69 49 -96 50 -96 0 -19 0 -19 22 -35 21 -35 34 -63 33 -62 0-13 0 -12 55 -109 55 -110 0 -12 0 -12 45 -87 46 -88 19 -56 20 -56 40 -69 40-69 25 -69 25 -70 11 -20 11 -20 -9 -9 -9 -9 -58 24 -58 24 -27 19 -26 19 -7033 -70 33 -35 19 -35 18 -69 35 -69 36 -12 0 -12 0 -42 30 -42 30 -49 20 -5020 -57 30 -58 31 -40 24 -40 25 -55 21 -55 20 -50 33 -50 33 -58 23 -58 23-24 19 -25 20 -90 38 -89 38 -43 30 -43 30 -86 37 -87 36 -22 24 -22 23 16 5516 55 29 64 30 63 15 25 15 25 20 45 19 45 11 33 10 33 19 27 19 27 27 70 2770 15 30 14 30 25 45 24 45 17 50 17 50 53 98 54 97 0 13 0 14 55 109 55 1090 8 0 8 32 67 32 67 10 7 10 7 13 -11 12 -10 7 -34z"/></g></svg>